<svg width="100" height="36" viewBox="0 0 178 36" fill="none" xmlns="http://www.w3.org/2000/svg">
<path d="M0.264 35V1.4H7.56L18.264 22.712L28.824 1.4H36.12V35H29.976V11.816L20.616 30.2H15.768L6.408 11.816V35H0.264ZM54.063 35.576C51.663 35.576 49.535 35.064 47.679 34.04C45.823 33.016 44.367 31.576 43.311 29.72C42.255 27.864 41.727 25.72 41.727 23.288C41.727 20.824 42.239 18.632 43.263 16.712C44.319 14.792 45.759 13.304 47.583 12.248C49.439 11.16 51.615 10.616 54.111 10.616C56.447 10.616 58.511 11.128 60.303 12.152C62.095 13.176 63.487 14.584 64.479 16.376C65.503 18.136 66.015 20.104 66.015 22.28C66.015 22.632 65.999 23 65.967 23.384C65.967 23.768 65.951 24.168 65.919 24.584H47.823C47.951 26.44 48.591 27.896 49.743 28.952C50.927 30.008 52.351 30.536 54.015 30.536C55.263 30.536 56.303 30.264 57.135 29.72C57.999 29.144 58.639 28.408 59.055 27.512H65.295C64.847 29.016 64.095 30.392 63.039 31.64C62.015 32.856 60.735 33.816 59.199 34.52C57.695 35.224 55.983 35.576 54.063 35.576ZM54.111 15.608C52.607 15.608 51.279 16.04 50.127 16.904C48.975 17.736 48.239 19.016 47.919 20.744H59.775C59.679 19.176 59.103 17.928 58.047 17C56.991 16.072 55.679 15.608 54.111 15.608ZM82.1265 35.576C79.8865 35.576 77.8865 35.032 76.1265 33.944C74.3665 32.856 72.9745 31.368 71.9505 29.48C70.9265 27.592 70.4145 25.448 70.4145 23.048C70.4145 20.648 70.9265 18.52 71.9505 16.664C72.9745 14.776 74.3665 13.304 76.1265 12.248C77.8865 11.16 79.8865 10.616 82.1265 10.616C83.9185 10.616 85.4865 10.952 86.8305 11.624C88.1745 12.296 89.2625 13.24 90.0945 14.456V0.439999H96.2385V35H90.7665L90.0945 31.592C89.3265 32.648 88.3025 33.576 87.0225 34.376C85.7745 35.176 84.1425 35.576 82.1265 35.576ZM83.4225 30.2C85.4065 30.2 87.0225 29.544 88.2705 28.232C89.5505 26.888 90.1905 25.176 90.1905 23.096C90.1905 21.016 89.5505 19.32 88.2705 18.008C87.0225 16.664 85.4065 15.992 83.4225 15.992C81.4705 15.992 79.8545 16.648 78.5745 17.96C77.2945 19.272 76.6545 20.968 76.6545 23.048C76.6545 25.128 77.2945 26.84 78.5745 28.184C79.8545 29.528 81.4705 30.2 83.4225 30.2ZM105.807 7.496C104.687 7.496 103.759 7.16 103.023 6.488C102.319 5.816 101.967 4.968 101.967 3.944C101.967 2.92 102.319 2.088 103.023 1.448C103.759 0.775998 104.687 0.439999 105.807 0.439999C106.927 0.439999 107.839 0.775998 108.543 1.448C109.279 2.088 109.647 2.92 109.647 3.944C109.647 4.968 109.279 5.816 108.543 6.488C107.839 7.16 106.927 7.496 105.807 7.496ZM102.735 35V11.192H108.879V35H102.735ZM126.956 35.576C124.524 35.576 122.38 35.048 120.524 33.992C118.668 32.936 117.196 31.464 116.108 29.576C115.052 27.688 114.524 25.528 114.524 23.096C114.524 20.664 115.052 18.504 116.108 16.616C117.196 14.728 118.668 13.256 120.524 12.2C122.38 11.144 124.524 10.616 126.956 10.616C129.996 10.616 132.556 11.416 134.636 13.016C136.716 14.584 138.044 16.76 138.62 19.544H132.14C131.82 18.392 131.18 17.496 130.22 16.856C129.292 16.184 128.188 15.848 126.908 15.848C125.212 15.848 123.772 16.488 122.588 17.768C121.404 19.048 120.812 20.824 120.812 23.096C120.812 25.368 121.404 27.144 122.588 28.424C123.772 29.704 125.212 30.344 126.908 30.344C128.188 30.344 129.292 30.024 130.22 29.384C131.18 28.744 131.82 27.832 132.14 26.648H138.62C138.044 29.336 136.716 31.496 134.636 33.128C132.556 34.76 129.996 35.576 126.956 35.576ZM152.281 35.576C150.233 35.576 148.553 35.256 147.241 34.616C145.929 33.944 144.953 33.064 144.313 31.976C143.673 30.888 143.353 29.688 143.353 28.376C143.353 26.168 144.217 24.376 145.945 23C147.673 21.624 150.265 20.936 153.721 20.936H159.769V20.36C159.769 18.728 159.305 17.528 158.377 16.76C157.449 15.992 156.297 15.608 154.921 15.608C153.673 15.608 152.585 15.912 151.657 16.52C150.729 17.096 150.153 17.96 149.929 19.112H143.929C144.089 17.384 144.665 15.88 145.657 14.6C146.681 13.32 147.993 12.344 149.593 11.672C151.193 10.968 152.985 10.616 154.969 10.616C158.361 10.616 161.033 11.464 162.985 13.16C164.937 14.856 165.913 17.256 165.913 20.36V35H160.681L160.105 31.16C159.401 32.44 158.409 33.496 157.129 34.328C155.881 35.16 154.265 35.576 152.281 35.576ZM153.673 30.776C155.433 30.776 156.793 30.2 157.753 29.048C158.745 27.896 159.369 26.472 159.625 24.776H154.393C152.761 24.776 151.593 25.08 150.889 25.688C150.185 26.264 149.833 26.984 149.833 27.848C149.833 28.776 150.185 29.496 150.889 30.008C151.593 30.52 152.521 30.776 153.673 30.776ZM171.776 35V0.439999H177.92V35H171.776Z" fill="#5E5BFB"/>
</svg>
