<svg width="20" height="20" viewBox="0 0 42 42" fill="none" xmlns="http://www.w3.org/2000/svg">
<path d="M41.4288 36.3117L33.2497 28.134C32.8805 27.7649 32.3801 27.5598 31.8551 27.5598H30.5179C32.7821 24.6644 34.1275 21.0226 34.1275 17.0608C34.1275 7.63636 26.4898 0 17.0637 0C7.63767 0 0 7.63636 0 17.0608C0 26.4853 7.63767 34.1217 17.0637 34.1217C21.0261 34.1217 24.6686 32.7765 27.5645 30.5126V31.8496C27.5645 32.3746 27.7696 32.8749 28.1388 33.244L36.3179 41.4217C37.089 42.1928 38.336 42.1928 39.099 41.4217L41.4206 39.1005C42.1918 38.3295 42.1918 37.0827 41.4288 36.3117ZM17.0637 27.5598C11.2637 27.5598 6.56298 22.8681 6.56298 17.0608C6.56298 11.2618 11.2555 6.56186 17.0637 6.56186C22.8638 6.56186 27.5645 11.2536 27.5645 17.0608C27.5645 22.8599 22.872 27.5598 17.0637 27.5598Z" fill="#868181"/>
</svg>
